<svg width="24" height="24" viewBox="0 0 24 24" fill="none" xmlns="http://www.w3.org/2000/svg">
<path d="M19.41 4H19V3C19 2.73478 18.8946 2.48043 18.7071 2.29289C18.5196 2.10536 18.2652 2 18 2H6C5.73478 2 5.48043 2.10536 5.29289 2.29289C5.10536 2.48043 5 2.73478 5 3V4H4.59C3.90309 4 3.24431 4.27287 2.75859 4.75859C2.27287 5.24431 2 5.90309 2 6.59V9.41C2 10.0969 2.27287 10.7557 2.75859 11.2414C3.24431 11.7271 3.90309 12 4.59 12H5.08C5.29706 13.4929 5.99065 14.8758 7.05742 15.9426C8.12419 17.0094 9.50706 17.7029 11 17.92V20H6C5.73478 20 5.48043 20.1054 5.29289 20.2929C5.10536 20.4804 5 20.7348 5 21C5 21.2652 5.10536 21.5196 5.29289 21.7071C5.48043 21.8946 5.73478 22 6 22H18C18.2652 22 18.5196 21.8946 18.7071 21.7071C18.8946 21.5196 19 21.2652 19 21C19 20.7348 18.8946 20.4804 18.7071 20.2929C18.5196 20.1054 18.2652 20 18 20H13V17.92C14.4929 17.7029 15.8758 17.0094 16.9426 15.9426C18.0094 14.8758 18.7029 13.4929 18.92 12H19.41C19.7501 12 20.0869 11.933 20.4011 11.8028C20.7154 11.6727 21.0009 11.4819 21.2414 11.2414C21.4819 11.0009 21.6727 10.7154 21.8028 10.4011C21.933 10.0869 22 9.75012 22 9.41V6.59C22 6.24988 21.933 5.91308 21.8028 5.59885C21.6727 5.28462 21.4819 4.9991 21.2414 4.75859C21.0009 4.51809 20.7154 4.32731 20.4011 4.19715C20.0869 4.06699 19.7501 4 19.41 4ZM4 9.41V6.59C4.00257 6.43433 4.06556 6.28575 4.17565 6.17565C4.28575 6.06556 4.43433 6.00257 4.59 6H5V10H4.59C4.43433 9.99743 4.28575 9.93444 4.17565 9.82435C4.06556 9.71425 4.00257 9.56567 4 9.41ZM12 16C10.6739 16 9.40215 15.4732 8.46447 14.5355C7.52678 13.5979 7 12.3261 7 11V4H17V11C17 12.3261 16.4732 13.5979 15.5355 14.5355C14.5979 15.4732 13.3261 16 12 16ZM20 9.41C19.9974 9.56567 19.9344 9.71425 19.8243 9.82435C19.7143 9.93444 19.5657 9.99743 19.41 10H19V6H19.41C19.5657 6.00257 19.7143 6.06556 19.8243 6.17565C19.9344 6.28575 19.9974 6.43433 20 6.59V9.41Z" fill="#C4C4C4"/>
</svg>
