<svg width="10" height="10" viewBox="0 0 10 10" fill="none" xmlns="http://www.w3.org/2000/svg">
<path d="M5.30298 1.86523H4.67798V5.34396L6.93605 6.41717L7.20435 5.85268L5.30298 4.949V1.86523Z" fill="#C4C4C4"/>
<path d="M5 0.3125C2.41117 0.3125 0.3125 2.41117 0.3125 5C0.3125 7.58883 2.41117 9.6875 5 9.6875C7.58883 9.6875 9.6875 7.58883 9.6875 5C9.6875 2.41117 7.58883 0.3125 5 0.3125ZM5 9.0625C2.75635 9.0625 0.9375 7.24365 0.9375 5C0.9375 2.75635 2.75635 0.9375 5 0.9375C7.24365 0.9375 9.0625 2.75635 9.0625 5C9.0625 7.24365 7.24365 9.0625 5 9.0625Z" fill="#C4C4C4"/>
</svg>
