<svg width="34" height="34" viewBox="0 0 34 34" fill="none" xmlns="http://www.w3.org/2000/svg">
<path fill-rule="evenodd" clip-rule="evenodd" d="M27.625 9.20833C27.0614 9.20833 26.5209 9.43222 26.1224 9.83073C25.7239 10.2292 25.5 10.7697 25.5 11.3333V12.75H29.75V11.3333C29.75 10.7697 29.5261 10.2292 29.1276 9.83073C28.7291 9.43222 28.1886 9.20833 27.625 9.20833ZM29.75 14.1667H25.5V25.8542L27.625 29.0417L29.75 25.8542V14.1667ZM4.25 6.375V27.625C4.25 28.1886 4.47388 28.7291 4.8724 29.1276C5.27091 29.5261 5.81141 29.75 6.375 29.75H21.9583C22.5219 29.75 23.0624 29.5261 23.4609 29.1276C23.8594 28.7291 24.0833 28.1886 24.0833 27.625V6.375C24.0833 5.81141 23.8594 5.27091 23.4609 4.8724C23.0624 4.47388 22.5219 4.25 21.9583 4.25H6.375C5.81141 4.25 5.27091 4.47388 4.8724 4.8724C4.47388 5.27091 4.25 5.81141 4.25 6.375ZM14.1667 10.625C14.1667 10.4371 14.2413 10.257 14.3741 10.1241C14.507 9.99129 14.6871 9.91667 14.875 9.91667H20.5417C20.7295 9.91667 20.9097 9.99129 21.0425 10.1241C21.1754 10.257 21.25 10.4371 21.25 10.625C21.25 10.8129 21.1754 10.993 21.0425 11.1259C20.9097 11.2587 20.7295 11.3333 20.5417 11.3333H14.875C14.6871 11.3333 14.507 11.2587 14.3741 11.1259C14.2413 10.993 14.1667 10.8129 14.1667 10.625ZM14.875 12.75C14.6871 12.75 14.507 12.8246 14.3741 12.9575C14.2413 13.0903 14.1667 13.2705 14.1667 13.4583C14.1667 13.6462 14.2413 13.8264 14.3741 13.9592C14.507 14.092 14.6871 14.1667 14.875 14.1667H20.5417C20.7295 14.1667 20.9097 14.092 21.0425 13.9592C21.1754 13.8264 21.25 13.6462 21.25 13.4583C21.25 13.2705 21.1754 13.0903 21.0425 12.9575C20.9097 12.8246 20.7295 12.75 20.5417 12.75H14.875ZM14.1667 19.8333C14.1667 19.6455 14.2413 19.4653 14.3741 19.3325C14.507 19.1996 14.6871 19.125 14.875 19.125H20.5417C20.7295 19.125 20.9097 19.1996 21.0425 19.3325C21.1754 19.4653 21.25 19.6455 21.25 19.8333C21.25 20.0212 21.1754 20.2014 21.0425 20.3342C20.9097 20.467 20.7295 20.5417 20.5417 20.5417H14.875C14.6871 20.5417 14.507 20.467 14.3741 20.3342C14.2413 20.2014 14.1667 20.0212 14.1667 19.8333ZM14.875 21.9583C14.6871 21.9583 14.507 22.033 14.3741 22.1658C14.2413 22.2986 14.1667 22.4788 14.1667 22.6667C14.1667 22.8545 14.2413 23.0347 14.3741 23.1675C14.507 23.3004 14.6871 23.375 14.875 23.375H20.5417C20.7295 23.375 20.9097 23.3004 21.0425 23.1675C21.1754 23.0347 21.25 22.8545 21.25 22.6667C21.25 22.4788 21.1754 22.2986 21.0425 22.1658C20.9097 22.033 20.7295 21.9583 20.5417 21.9583H14.875ZM8.5 19.8333V21.9583H10.625V19.8333H8.5ZM7.79167 18.4167H11.3333C11.5212 18.4167 11.7014 18.4913 11.8342 18.6241C11.967 18.757 12.0417 18.9371 12.0417 19.125V22.6667C12.0417 22.8545 11.967 23.0347 11.8342 23.1675C11.7014 23.3004 11.5212 23.375 11.3333 23.375H7.79167C7.6038 23.375 7.42364 23.3004 7.2908 23.1675C7.15796 23.0347 7.08333 22.8545 7.08333 22.6667V19.125C7.08333 18.9371 7.15796 18.757 7.2908 18.6241C7.42364 18.4913 7.6038 18.4167 7.79167 18.4167V18.4167ZM12.5425 11.1258C12.6715 10.9922 12.7429 10.8133 12.7413 10.6275C12.7397 10.4418 12.6652 10.2642 12.5338 10.1328C12.4025 10.0015 12.2248 9.92701 12.0391 9.9254C11.8534 9.92378 11.6745 9.99518 11.5409 10.1242L9.20833 12.4568L8.29246 11.5409C8.15886 11.4118 7.97994 11.3404 7.79422 11.3421C7.60849 11.3437 7.43083 11.4182 7.2995 11.5495C7.16817 11.6808 7.09368 11.8585 7.09206 12.0442C7.09045 12.2299 7.16185 12.4089 7.29088 12.5425L9.20833 14.4599L12.5425 11.1258Z" fill="white"/>
</svg>
