<svg width="10" height="10" viewBox="0 0 10 10" fill="none" xmlns="http://www.w3.org/2000/svg">
<path d="M2.91667 4.58334H3.75V5.41667H2.91667V4.58334ZM8.75 2.5V8.33334C8.75 8.79167 8.375 9.16667 7.91667 9.16667H2.08333C1.86232 9.16667 1.65036 9.07887 1.49408 8.92259C1.3378 8.76631 1.25 8.55435 1.25 8.33334L1.25417 2.5C1.25417 2.04167 1.62083 1.66667 2.08333 1.66667H2.5V0.833336H3.33333V1.66667H6.66667V0.833336H7.5V1.66667H7.91667C8.375 1.66667 8.75 2.04167 8.75 2.5ZM2.08333 3.33334H7.91667V2.5H2.08333V3.33334ZM7.91667 8.33334V4.16667H2.08333V8.33334H7.91667ZM6.25 5.41667H7.08333V4.58334H6.25V5.41667ZM4.58333 5.41667H5.41667V4.58334H4.58333V5.41667Z" fill="#C4C4C4"/>
</svg>
