<svg width="31" height="36" viewBox="0 0 31 36" fill="none" xmlns="http://www.w3.org/2000/svg">
<path d="M11.5008 30.5236C12.383 30.3385 17.7586 30.3385 18.6408 30.5236C19.3949 30.6963 20.2105 31.0999 20.2105 31.9812C20.1667 32.8202 19.6703 33.5639 18.9845 34.0363C18.0953 34.7237 17.0518 35.159 15.9609 35.3159C15.3575 35.3935 14.7647 35.3952 14.1824 35.3159C13.0898 35.159 12.0462 34.7237 11.1588 34.0345C10.4712 33.5639 9.9749 32.8202 9.93105 31.9812C9.93105 31.0999 10.7466 30.6963 11.5008 30.5236ZM15.175 0.374725C18.8458 0.374725 22.5956 2.10201 24.823 4.96789C26.2682 6.81326 26.9312 8.65687 26.9312 11.5228V12.2683C26.9312 14.4662 27.517 15.7616 28.8061 17.2545C29.783 18.3543 30.0952 19.7661 30.0952 21.2978C30.0952 22.8276 29.5883 24.28 28.5728 25.4591C27.2434 26.8727 25.3685 27.7751 23.455 27.9319C20.6821 28.1664 17.9075 28.3638 15.096 28.3638C12.2828 28.3638 9.50994 28.2457 6.73707 27.9319C4.82184 27.7751 2.94695 26.8727 1.61927 25.4591C0.603777 24.28 0.0951538 22.8276 0.0951538 21.2978C0.0951538 19.7661 0.409097 18.3543 1.38425 17.2545C2.71369 15.7616 3.26089 14.4662 3.26089 12.2683V11.5228C3.26089 8.57932 4.00103 6.65463 5.52515 4.77048C7.79115 2.02269 11.4234 0.374725 15.0171 0.374725H15.175Z" fill="#E0E0E0" fill-opacity="0.44"/>
</svg>
