<svg width="34" height="34" viewBox="0 0 34 34" fill="none" xmlns="http://www.w3.org/2000/svg">
<path d="M34 7.52037C32.721 8.07818 31.3684 8.44891 29.9837 8.62112C31.4429 7.75545 32.5339 6.38469 33.0501 4.76849C31.6838 5.57883 30.1889 6.14948 28.6301 6.45574C27.6744 5.43527 26.4338 4.72582 25.0697 4.41956C23.7055 4.11329 22.2807 4.22437 20.9805 4.73837C19.6803 5.25236 18.5647 6.14552 17.7787 7.30178C16.9926 8.45805 16.5725 9.82398 16.5729 11.2221C16.5729 11.7746 16.6196 12.3059 16.7344 12.8116C13.9614 12.6757 11.2484 11.956 8.77264 10.6996C6.2969 9.44325 4.1142 7.6785 2.36725 5.52074C1.47224 7.05469 1.19554 8.8721 1.5935 10.6029C1.99146 12.3337 3.03415 13.8477 4.50925 14.8367C3.40586 14.8072 2.32576 14.5127 1.36 13.9782V14.0547C1.36185 15.6643 1.91816 17.224 2.9353 18.4715C3.95243 19.7189 5.36828 20.5778 6.9445 20.9036C6.3482 21.0608 5.73365 21.1379 5.117 21.1331C4.67413 21.141 4.23169 21.1011 3.79737 21.0141C4.24775 22.3975 5.11592 23.6073 6.28234 24.4769C7.44876 25.3465 8.85607 25.8331 10.3105 25.8697C7.84324 27.7993 4.80032 28.8461 1.66813 28.8426C1.0965 28.8426 0.54825 28.8171 0 28.747C3.18725 30.8009 6.90131 31.8874 10.693 31.875C23.5195 31.875 30.532 21.25 30.532 12.0402C30.532 11.7321 30.5214 11.4346 30.5065 11.1392C31.8813 10.1553 33.0652 8.92899 34 7.52037Z" fill="#03A9F4"/>
</svg>
