<svg width="34" height="34" viewBox="0 0 34 34" fill="none" xmlns="http://www.w3.org/2000/svg">
<path d="M12.4978 13.4711H15.1257L13.8111 10.2878L12.4978 13.4711ZM7.96875 4.25C6.98248 4.25 6.0366 4.6418 5.3392 5.3392C4.6418 6.0366 4.25 6.98248 4.25 7.96875V26.0312C4.25 28.0854 5.91458 29.75 7.96875 29.75H17.3676C16.4197 28.2702 15.9171 26.5491 15.9198 24.7917C15.9198 23.6697 16.1202 22.5951 16.4879 21.6013H7.96875C7.73392 21.6013 7.50871 21.508 7.34267 21.342C7.17662 21.176 7.08333 20.9507 7.08333 20.7159C7.08333 20.4811 7.17662 20.2559 7.34267 20.0898C7.50871 19.9238 7.73392 19.8305 7.96875 19.8305H17.369C18.2014 18.5277 19.3486 17.4557 20.7047 16.7134C22.0609 15.9711 23.5821 15.5824 25.1281 15.5833C26.8125 15.5833 28.3914 16.036 29.75 16.8257V7.96875C29.75 5.91458 28.0854 4.25 26.0312 4.25H7.96875ZM7.08333 24.9687C7.08333 24.48 7.48 24.0833 7.96875 24.0833H13.6411C13.8759 24.0833 14.1011 24.1766 14.2672 24.3427C14.4332 24.5087 14.5265 24.7339 14.5265 24.9687C14.5265 25.2036 14.4332 25.4288 14.2672 25.5948C14.1011 25.7609 13.8759 25.8542 13.6411 25.8542H7.96875C7.48 25.8542 7.08333 25.4575 7.08333 24.9687ZM13.8111 7.08192C14.1695 7.08192 14.4925 7.29796 14.6292 7.62946L17.9952 15.7795C18.0781 15.9952 18.0735 16.2347 17.9822 16.447C17.8909 16.6593 17.7203 16.8275 17.5067 16.9157C17.2932 17.0038 17.0536 17.0051 16.8392 16.9191C16.6247 16.833 16.4524 16.6666 16.359 16.4553L15.8575 15.2419H11.7668L11.266 16.4553C11.2237 16.5655 11.1596 16.6662 11.0778 16.7513C10.9959 16.8364 10.8978 16.9043 10.7893 16.951C10.6808 16.9976 10.5641 17.0221 10.446 17.0229C10.3279 17.0238 10.2108 17.001 10.1016 16.9559C9.99246 16.9108 9.89342 16.8444 9.81033 16.7604C9.72724 16.6765 9.66179 16.5768 9.61782 16.4672C9.57385 16.3575 9.55226 16.2402 9.55432 16.1221C9.55637 16.004 9.58204 15.8876 9.62979 15.7795L12.9922 7.62946C13.0592 7.46736 13.1727 7.32879 13.3185 7.23131C13.4643 7.13383 13.6357 7.08183 13.8111 7.08192ZM22.4882 7.08192C22.9769 7.08192 23.3736 7.47858 23.3736 7.96733V9.91667H25.3229C25.5577 9.91667 25.783 10.01 25.949 10.176C26.115 10.342 26.2083 10.5673 26.2083 10.8021C26.2083 11.0369 26.115 11.2621 25.949 11.4282C25.783 11.5942 25.5577 11.6875 25.3229 11.6875H23.3736V13.634C23.3736 13.8688 23.2803 14.094 23.1142 14.2601C22.9482 14.4261 22.723 14.5194 22.4882 14.5194C22.2533 14.5194 22.0281 14.4261 21.8621 14.2601C21.696 14.094 21.6027 13.8688 21.6027 13.634V11.6875H19.6562C19.4214 11.6875 19.1962 11.5942 19.0302 11.4282C18.8641 11.2621 18.7708 11.0369 18.7708 10.8021C18.7708 10.5673 18.8641 10.342 19.0302 10.176C19.1962 10.01 19.4214 9.91667 19.6562 9.91667H21.6027V7.96733C21.6027 7.47858 21.9994 7.08192 22.4882 7.08192V7.08192ZM32.9198 24.7917C32.9198 29.0948 29.4312 32.5833 25.1281 32.5833C20.825 32.5833 17.3365 29.0948 17.3365 24.7917C17.3365 20.4885 20.825 17 25.1281 17C29.4312 17 32.9198 20.4885 32.9198 24.7917ZM25.8365 19.8333C25.8365 19.6455 25.7618 19.4653 25.629 19.3325C25.4962 19.1996 25.316 19.125 25.1281 19.125C24.9403 19.125 24.7601 19.1996 24.6273 19.3325C24.4944 19.4653 24.4198 19.6455 24.4198 19.8333V24.0833H20.1698C19.9819 24.0833 19.8018 24.158 19.6689 24.2908C19.5361 24.4236 19.4615 24.6038 19.4615 24.7917C19.4615 24.9795 19.5361 25.1597 19.6689 25.2925C19.8018 25.4254 19.9819 25.5 20.1698 25.5H24.4198V29.75C24.4198 29.9379 24.4944 30.118 24.6273 30.2509C24.7601 30.3837 24.9403 30.4583 25.1281 30.4583C25.316 30.4583 25.4962 30.3837 25.629 30.2509C25.7618 30.118 25.8365 29.9379 25.8365 29.75V25.5H30.0865C30.2743 25.5 30.4545 25.4254 30.5873 25.2925C30.7202 25.1597 30.7948 24.9795 30.7948 24.7917C30.7948 24.6038 30.7202 24.4236 30.5873 24.2908C30.4545 24.158 30.2743 24.0833 30.0865 24.0833H25.8365V19.8333Z" fill="white"/>
</svg>
