<svg width="34" height="34" viewBox="0 0 34 34" fill="none" xmlns="http://www.w3.org/2000/svg">
<path d="M18.4167 9.56249V2.83333H12.3959C11.5505 2.83333 10.7398 3.16915 10.142 3.76693C9.54424 4.3647 9.20841 5.17545 9.20841 6.02083V24.4375C9.20841 25.2829 9.54424 26.0936 10.142 26.6914C10.7398 27.2892 11.5505 27.625 12.3959 27.625H25.1459C25.5645 27.625 25.979 27.5425 26.3657 27.3824C26.7524 27.2222 27.1038 26.9874 27.3998 26.6914C27.6958 26.3954 27.9306 26.044 28.0908 25.6573C28.251 25.2706 28.3334 24.8561 28.3334 24.4375V12.75H21.6042C20.7589 12.75 19.9481 12.4142 19.3503 11.8164C18.7526 11.2186 18.4167 10.4079 18.4167 9.56249ZM20.5417 9.56249V3.54166L27.6251 10.625H21.6042C21.3225 10.625 21.0522 10.5131 20.8529 10.3138C20.6537 10.1145 20.5417 9.84429 20.5417 9.56249ZM7.796 6.55491C7.17348 6.77424 6.63435 7.18132 6.25297 7.72001C5.8716 8.25871 5.66677 8.90247 5.66675 9.56249V24.4432C5.66675 26.2278 6.37571 27.9394 7.63768 29.2014C8.89964 30.4634 10.6112 31.1723 12.3959 31.1723H21.5957C22.2551 31.1725 22.8982 30.9683 23.4366 30.5877C23.975 30.2071 24.3821 29.6689 24.6019 29.0473H12.3959C11.1748 29.0473 10.0037 28.5622 9.14028 27.6988C8.27683 26.8353 7.79175 25.6643 7.79175 24.4432L7.796 6.55491V6.55491Z" fill="#FFE1DA"/>
</svg>
