<svg width="18" height="18" viewBox="0 0 18 18" fill="none" xmlns="http://www.w3.org/2000/svg">
<g clip-path="url(#clip0_40_2199)">
<path d="M9 0C7.21997 0 5.47991 0.527841 3.99987 1.51677C2.51983 2.50571 1.36628 3.91131 0.685088 5.55585C0.00389957 7.20038 -0.17433 9.00998 0.172937 10.7558C0.520204 12.5016 1.37737 14.1053 2.63604 15.364C3.89472 16.6226 5.49836 17.4798 7.24419 17.8271C8.99002 18.1743 10.7996 17.9961 12.4442 17.3149C14.0887 16.6337 15.4943 15.4802 16.4832 14.0001C17.4722 12.5201 18 10.78 18 9C18 6.61305 17.0518 4.32387 15.364 2.63604C13.6761 0.948211 11.387 0 9 0V0ZM9 16.5C7.51664 16.5 6.0666 16.0601 4.83323 15.236C3.59986 14.4119 2.63857 13.2406 2.07091 11.8701C1.50325 10.4997 1.35473 8.99168 1.64411 7.53682C1.9335 6.08196 2.64781 4.74559 3.6967 3.6967C4.7456 2.6478 6.08197 1.9335 7.53683 1.64411C8.99168 1.35472 10.4997 1.50325 11.8701 2.0709C13.2406 2.63856 14.4119 3.59985 15.236 4.83322C16.0601 6.06659 16.5 7.51664 16.5 9C16.5 10.9891 15.7098 12.8968 14.3033 14.3033C12.8968 15.7098 10.9891 16.5 9 16.5Z" fill="#E5E5E5"/>
<path d="M13.1176 8.3475C5.93256 4.3575 6.13506 4.2975 5.61756 4.5975C5.10006 4.8975 5.25006 4.8075 5.25006 12.75C5.25006 12.9489 5.32908 13.1397 5.46973 13.2803C5.61038 13.421 5.80115 13.5 6.00006 13.5C6.27756 13.5 5.78256 13.725 13.1176 9.6525C13.233 9.58708 13.329 9.49222 13.3958 9.37759C13.4626 9.26296 13.4978 9.13267 13.4978 9C13.4978 8.86733 13.4626 8.73703 13.3958 8.6224C13.329 8.50777 13.233 8.41291 13.1176 8.3475ZM6.75006 11.475V6.525L11.2051 9L6.75006 11.475Z" fill="#E5E5E5"/>
</g>
<defs>
<clipPath id="clip0_40_2199">
<rect width="18" height="18" fill="white"/>
</clipPath>
</defs>
</svg>
