<svg width="34" height="34" viewBox="0 0 34 34" fill="none" xmlns="http://www.w3.org/2000/svg">
<g clip-path="url(#clip0_40_2023)">
<path d="M29.0454 4.94094C25.8492 1.7566 21.5992 0.00197335 17.0711 3.05176e-05C7.74034 3.05176e-05 0.146953 7.5576 0.143218 16.8469C0.14213 19.8163 0.921416 22.7148 2.40263 25.2698L0.00109863 34.0001L8.97478 31.6574C11.4472 32.9998 14.231 33.7072 17.0639 33.7084H17.0711H17.0711C26.4004 33.7084 33.995 26.1495 33.9989 16.8606C34.0005 12.3585 32.2412 8.12549 29.0454 4.94094ZM17.0711 30.8629H17.0656C14.5406 30.8615 12.0644 30.1866 9.90455 28.9106L9.39055 28.6073L4.06537 29.9973L5.48712 24.83L5.15223 24.3003C3.74372 22.0706 3.00015 19.4938 3.00121 16.848C3.0043 9.12702 9.31564 2.84564 17.0765 2.84564C20.8347 2.8472 24.3669 4.30566 27.0235 6.95238C29.6799 9.59908 31.1418 13.1175 31.1407 16.8594C31.1374 24.5806 24.8258 30.8629 17.0711 30.8629Z" fill="#E0E0E0"/>
<path d="M0.778183 33.0313L3.07002 24.6999C1.6561 22.2616 0.912552 19.4952 0.913444 16.6621C0.917152 7.79725 8.16376 0.585114 17.0676 0.585114C21.389 0.587056 25.445 2.26145 28.4945 5.3004C31.5447 8.33933 33.2234 12.3787 33.2217 16.6746C33.2179 25.5397 25.9709 32.7525 17.0682 32.7525C17.0676 32.7525 17.0687 32.7525 17.0682 32.7525H17.061C14.3575 32.7516 11.7011 32.0759 9.3418 30.7957L0.778183 33.0313Z" fill="url(#paint0_linear_40_2023)"/>
<path fill-rule="evenodd" clip-rule="evenodd" d="M12.8881 9.69456C12.575 9.00133 12.2452 8.98745 11.9473 8.97532C11.7036 8.96491 11.4246 8.96555 11.146 8.96555C10.8672 8.96555 10.4142 9.06986 10.0311 9.4864C9.64783 9.90294 8.56758 10.9099 8.56758 12.9579C8.56758 15.0061 10.066 16.9852 10.2748 17.2631C10.4839 17.5407 13.1674 21.8778 17.4171 23.5463C20.949 24.933 21.6678 24.6572 22.4344 24.5878C23.201 24.5184 24.9081 23.581 25.2566 22.609C25.605 21.6371 25.605 20.804 25.5005 20.6299C25.3959 20.4564 25.1172 20.3524 24.699 20.1442C24.2808 19.936 22.2253 18.9288 21.842 18.7901C21.4587 18.6513 21.1799 18.5819 20.9012 18.9987C20.6224 19.415 19.8215 20.3524 19.5776 20.6299C19.3337 20.9081 19.0898 20.9428 18.6716 20.7346C18.2534 20.5258 16.9068 20.0867 15.3093 18.6686C14.0664 17.5654 13.2272 16.2028 12.9833 15.786C12.7394 15.3697 12.9572 15.1442 13.1669 14.9367C13.3546 14.7502 13.5851 14.4507 13.7941 14.2077C14.0028 13.9646 14.0725 13.7911 14.2119 13.5136C14.3512 13.2356 14.2816 12.9925 14.177 12.7844C14.0725 12.5762 13.2599 10.5177 12.8881 9.69456Z" fill="white"/>
<path d="M28.907 4.88737C25.7475 1.7396 21.5463 0.00514442 17.0703 0.00317383C7.84661 0.00317383 0.340425 7.47398 0.336717 16.6567C0.33563 19.592 1.10596 22.4572 2.57016 24.9829L0.196243 33.6129L9.06689 31.2971C11.5109 32.6241 14.2627 33.3234 17.0631 33.3245H17.0702H17.0703C26.2924 33.3245 33.7997 25.8524 33.8037 16.6701C33.8052 12.2198 32.0661 8.03537 28.907 4.88737ZM17.0703 30.5117H17.0649C14.5688 30.5104 12.121 29.8432 9.98597 28.5819L9.47785 28.282L4.21384 29.6561L5.61925 24.5482L5.2882 24.0245C3.89587 21.8204 3.16083 19.2732 3.16192 16.6578C3.16495 9.02544 9.40381 2.81617 17.0755 2.81617C20.7906 2.8177 24.2823 4.25942 26.9084 6.87575C29.5343 9.49208 30.9793 12.9701 30.9783 16.6691C30.975 24.3016 24.7359 30.5117 17.0703 30.5117Z" fill="white"/>
</g>
<defs>
<linearGradient id="paint0_linear_40_2023" x1="16.9999" y1="33.0313" x2="16.9999" y2="0.585168" gradientUnits="userSpaceOnUse">
<stop stop-color="#20B038"/>
<stop offset="1" stop-color="#60D66A"/>
</linearGradient>
<clipPath id="clip0_40_2023">
<rect width="34" height="34" fill="white"/>
</clipPath>
</defs>
</svg>
